<svg version="1.1"
     id="svg2795" xmlns:rdf="http://www.w3.org/1999/02/22-rdf-syntax-ns#" xmlns:svg="http://www.w3.org/2000/svg"
     xmlns:sodipodi="http://sodipodi.sourceforge.net/DTD/sodipodi-0.dtd"
     xmlns:inkscape="http://www.inkscape.org/namespaces/inkscape" xmlns:cc="http://creativecommons.org/ns#"
     xmlns:dc="http://purl.org/dc/elements/1.1/" inkscape:output_extension="org.inkscape.output.svg.inkscape"
     sodipodi:docname="WEF logo.svg" inkscape:version="0.46" sodipodi:version="0.32"
     xmlns="http://www.w3.org/2000/svg" xmlns:xlink="http://www.w3.org/1999/xlink" x="0px" y="0px"
     viewBox="0 0 137.4 82.9"
     enable-background="new 0 0 137.4 82.9" xml:space="preserve">
<path id="path2599" fill="#5A5B5D" d="M48.4,15c-0.2-0.6-0.3-1.3-0.3-2c0-3,2-5.6,5.6-5.6c0.8,0,1.5,0.1,2.1,0.3
	c0.7-0.5,1.3-1,2-1.5c-1.2-0.7-2.6-1.1-4.1-1.1c-4.4,0-8.1,3.5-8.1,7.9c0,1.6,0.4,3,1.2,4.2c0.2-0.3,0.4-0.5,0.5-0.8
	C47.6,16,48,15.5,48.4,15"/>
    <path id="path2601" fill="#5A5B5D" d="M59.1,7.2c-0.6,0.4-1.3,0.9-1.9,1.3c1.3,1.1,2,2.7,2,4.5c0,3.1-2.3,5.6-5.6,5.6
	c-1.9,0-3.4-0.8-4.4-2.1c-0.2,0.3-0.4,0.5-0.6,0.8c-0.3,0.4-0.6,0.8-0.8,1.2c1.5,1.5,3.5,2.4,5.8,2.4c4.5,0,8.1-3.4,8.1-7.9
	C61.7,10.7,60.7,8.7,59.1,7.2"/>
    <path id="path2603" fill="#5A5B5D" d="M44.8,33.5c0,2.4-1.4,4.4-3.5,5.3c0,0.4,0,0.9,0,1.3c0,0.3,0,0.7,0,1c3.4-0.9,6-3.9,6-7.6
	c0-2.8-1.5-5.2-3.7-6.6c-0.3,0.7-0.5,1.5-0.7,2.2C44.2,30.2,44.8,31.8,44.8,33.5"/>
    <path id="path2605" fill="#5A5B5D" d="M39.7,39.1c-0.2,0-0.3,0-0.5,0c-3.3,0-5.6-2.6-5.6-5.6c0-3,2-5.6,5.6-5.6
	c0.8,0,1.6,0.1,2.2,0.4c0.2-0.7,0.4-1.4,0.7-2.1c-0.9-0.3-1.9-0.5-2.9-0.5c-4.4,0-8.1,3.5-8.1,7.9c0,4.5,3.6,7.9,8.1,7.9
	c0.2,0,0.3,0,0.5,0c0-0.4,0-0.9,0-1.3C39.7,39.8,39.7,39.4,39.7,39.1"/>
    <path id="path2607" fill="#5A5B5D" d="M45,48.4c3.6,0,5.6,2.7,5.6,5.6c0,2.6-1.6,4.8-4.1,5.5c0.4,0.7,0.8,1.3,1.2,2
	c3.1-1.1,5.4-3.9,5.4-7.4c0-4.3-3.7-7.9-8.1-7.9c-1.1,0-2.2,0.2-3.1,0.6c0.1,0.7,0.3,1.5,0.5,2.2C43.1,48.7,44,48.4,45,48.4"/>
    <path id="path2609" fill="#5A5B5D" d="M39.4,54.1c0-1.5,0.5-3,1.5-4c-0.2-0.8-0.4-1.6-0.5-2.4c-2.1,1.4-3.5,3.8-3.5,6.4
	c0,4.5,3.6,7.9,8.1,7.9c0.4,0,0.7,0,1-0.1c-0.5-0.7-0.9-1.4-1.3-2.2C41.6,59.6,39.4,57.1,39.4,54.1"/>
    <path id="path2611" fill="#00529C" d="M108.7,71.6c-7.5,6.1-17,9.5-26.9,9.5c-10,0-19.8-3.5-27.4-9.9l-1.2,1.4
	c7.9,6.7,18.1,10.4,28.6,10.4c10.3,0,20.2-3.5,28.1-9.9L108.7,71.6z"/>
    <path id="path2613" fill="#5A5B5D" d="M84.3,46.6v9.1c0,2.1-0.7,4.1-3.4,4.1c-2.7,0-3.4-2-3.4-4.1v-9.1H75v9.5
	c0,3.3,2.1,5.9,5.9,5.9c3.8,0,5.9-2.5,5.9-5.9v-9.5H84.3z"/>
    <path id="path2615" fill="#5A5B5D" d="M86.3,18.5h6.8v2.1h-9.3V5.5h2.5V18.5z"/>
    <path id="path2617" fill="#5A5B5D" d="M2.7,26h8.8v2.2H5.2v3.6h6.2v2.2H5.2v5h6.4v2.2H2.7V26z"/>
    <path id="path2619" fill="#5A5B5D" d="M52.4,25.2l10.4,10.6V26h2.5v15.7L54.9,31.1v10h-2.5V25.2z"/>
    <path id="path2621" fill="#5A5B5D" d="M116.8,41.1h-2.5V26h2.5V41.1z"/>
    <path id="path2623" fill="#5A5B5D" d="M27,48.7v3.6h5.4v2.2H27v7.1h-2.5V46.5h8v2.2H27z"/>
    <path id="path2625" fill="#5A5B5D" d="M37,14.9L37,14.9l2.5-9.4H42l-4.2,15.7L32.4,9.8l-5.3,11.4L22.9,5.5h2.5l2.4,9.4h0l4.6-9.8
	L37,14.9z"/>
    <path id="path2627" fill="#5A5B5D" d="M94.8,31.6L94.8,31.6l-2.5,9.4h-2.5l4.2-15.7l5.3,11.4l5.3-11.4l4.2,15.7h-2.5l-2.4-9.4h0
	l-4.6,9.8L94.8,31.6z"/>
    <path id="path2629" fill="#5A5B5D" d="M96.1,52.2L96.1,52.2l-2.5,9.4h-2.5l4.2-15.7l5.3,11.4l5.3-11.4l4.2,15.7h-2.5l-2.4-9.4h0
	l-4.6,9.8L96.1,52.2z"/>
    <path id="path2631" fill="#5A5B5D" d="M60.9,53.3h1.2c2,0,4.3,0,4.3-2.4c0-2.4-2.5-2.3-4.4-2.3h-1.1V53.3z M62.5,46.5
	c1.4,0,3,0,4.2,0.7c1.3,0.7,2,2.2,2,3.6c0,2.2-1.5,4-3.7,4.2l4.9,6.6h-2.8l-4.5-6.4h-1.7v6.4h-2.5V46.5H62.5z"/>
    <path id="path2633" fill="#5A5B5D" d="M69.4,12.2h1.2c2,0,4.3,0,4.3-2.4c0-2.4-2.5-2.3-4.4-2.3h-1.1V12.2z M71,5.5
	c1.4,0,3,0,4.2,0.7c1.3,0.7,2,2.2,2,3.6c0,2.2-1.5,4-3.7,4.2l4.9,6.6h-2.8l-4.6-6.4h-1.7v6.4h-2.5V5.5H71z"/>
    <path id="path2635" fill="#5A5B5D" d="M97.5,5.5h4.1c4.7,0,8.7,2.3,8.7,7.5c0,5.2-3.9,7.6-8.7,7.6h-4.1V5.5z M100,18.4h1.4
	c3.3,0,6.4-1.2,6.4-5.5s-3.1-5.4-6.4-5.4H100V18.4z"/>
    <path id="path2637" fill="#5A5B5D" d="M133.4,38.5c-0.8,0.4-1.7,0.7-2.8,0.7c-3.3,0-5.6-2.6-5.6-5.6c0-3,2-5.6,5.6-5.6
	c1.1,0,2,0.2,2.8,0.6l1.3-1.8c-1.2-0.7-2.6-1.1-4-1.1c-4.4,0-8.1,3.5-8.1,7.9c0,4.5,3.6,7.9,8.1,7.9c1.5,0,2.9-0.4,4.1-1L133.4,38.5
	z"/>
    <path id="path2639" fill="#5A5B5D" d="M27.1,38.5c-0.8,0.4-1.7,0.7-2.8,0.7c-3.3,0-5.6-2.6-5.6-5.6c0-3,2-5.6,5.6-5.6
	c1.1,0,2,0.2,2.8,0.6l1.3-1.8c-1.2-0.7-2.6-1.1-4-1.1c-4.4,0-8.1,3.5-8.1,7.9c0,4.5,3.6,7.9,8.1,7.9c1.5,0,2.9-0.4,4.1-1L27.1,38.5z
	"/>
    <path id="path2641" fill="#00529C" d="M108.4,71.2c-7.4,6-16.8,9.4-26.5,9.4c-11.1,0-21.5-4.2-29.3-11.8
	C44.8,61,40.5,50.9,40.5,40.1c0-8.4,2.6-16.4,7.5-23.2c4.8-6.7,11.4-11.7,19.1-14.6l-0.3-0.8c-7.9,3-14.7,8.1-19.5,14.9
	c-5,7-7.6,15.1-7.6,23.7c0,11,4.4,21.4,12.4,29.2c8,7.8,18.6,12.1,29.9,12.1c9.9,0,19.5-3.4,27-9.6L108.4,71.2z"/>
    <path id="path2643" fill="#5A5B5D" d="M86.7,33.5c0,4.5-3.6,7.9-8.1,7.9c-4.5,0-8.1-3.4-8.1-7.9c0-4.3,3.7-7.9,8.1-7.9
	S86.7,29.2,86.7,33.5 M84.2,33.5c0-3-2-5.6-5.6-5.6c-3.6,0-5.6,2.7-5.6,5.6c0,3.1,2.3,5.6,5.6,5.6C81.9,39.2,84.2,36.6,84.2,33.5"/>
</svg>